<svg width="1494" height="1005" viewBox="0 0 1494 1005" fill="none" xmlns="http://www.w3.org/2000/svg">
<path d="M658.104 161.718C986.163 4.43071 1354.15 -25.7685 1453.43 23.9343C1552.71 73.6371 1458.83 433.51 1189.04 573.81C1016.94 663.311 712.654 644.159 459.958 647.944C464.778 702.351 467.651 757.313 460.621 811.542C435.801 1003 57.0218 1003 57.0218 1003C57.0218 1003 -98.3745 813.822 113.137 700.618C189.721 659.63 316.53 650.092 459.958 647.944C443.521 462.419 404.436 283.339 658.104 161.718Z" fill="#371E59"/>
<path d="M57.0218 1003C57.0218 1003 435.801 1003 460.621 811.542C491.623 572.395 330.045 319.005 658.104 161.718C986.163 4.43071 1354.15 -25.7685 1453.43 23.9343C1552.71 73.6371 1458.83 433.51 1189.04 573.81C919.256 714.111 324.649 587.415 113.137 700.618C-98.3745 813.822 57.0218 1003 57.0218 1003Z" stroke="black" stroke-width="3"/>
</svg>
