<svg width="86" height="87" viewBox="0 0 86 87" fill="none" xmlns="http://www.w3.org/2000/svg">
<g clip-path="url(#clip0)">
<path d="M22.7305 74.5119L24.1364 75.215C29.9951 78.7296 36.5563 80.3698 43.1179 80.3698C63.7394 80.3698 80.6115 63.4992 80.6115 42.8796C80.6115 33.0385 76.6276 23.4315 69.5978 16.402C62.5676 9.37247 53.194 5.38928 43.1179 5.38928C22.4963 5.38928 5.62389 22.2599 5.85837 43.114C5.85837 50.1432 7.96739 56.9386 11.4823 62.7962L12.4196 64.2023L8.67051 78.0269L22.7305 74.5119Z" fill="#00E676"/>
<path d="M73.5814 12.653C65.614 4.45212 54.6003 0 43.3521 0C19.4501 0 0.234484 19.448 0.468633 43.1137C0.468633 50.6118 2.57765 57.8758 6.0929 64.4364L0 86.6963L22.7305 80.8385C29.0576 84.3534 36.0874 85.9936 43.1179 85.9936C66.7857 85.9936 86.0013 66.5453 86.0013 42.8799C86.0013 31.3983 81.5488 20.6197 73.5817 12.653H73.5814ZM43.3521 78.73C37.025 78.73 30.698 77.0901 25.3082 73.8096L23.9023 73.1065L10.3109 76.6211L13.8258 63.2655L12.8886 61.8594C2.57765 45.2232 7.4988 23.1971 24.3709 12.8871C41.243 2.57742 63.0363 7.49812 73.3473 24.3687C83.6578 41.2393 78.7367 63.0307 61.8649 73.3407C56.4748 76.8553 49.9136 78.7296 43.3521 78.7296V78.73ZM63.9736 52.7213L61.3959 51.5497C61.3959 51.5497 57.6469 49.9095 55.3034 48.7378C55.0689 48.7378 54.8347 48.5033 54.6003 48.5033C53.8971 48.5033 53.4285 48.7378 52.9599 48.9723C52.9599 48.9723 52.7257 49.2064 49.445 52.9555C49.2105 53.424 48.7418 53.6585 48.2732 53.6585H48.0387C47.8046 53.6585 47.3359 53.424 47.1015 53.1899L45.9297 52.7213C43.3521 51.5497 41.0089 50.1436 39.134 48.2692C38.6654 47.8006 37.9623 47.332 37.4936 46.8634C35.8533 45.2232 34.2129 43.3485 33.0415 41.2397L32.807 40.7711C32.5728 40.5366 32.5728 40.3025 32.3384 39.8339C32.3384 39.3653 32.3384 38.8967 32.5728 38.6623C32.5728 38.6623 33.5101 37.4906 34.2129 36.7879C34.6819 36.319 34.916 35.6163 35.3846 35.1477C35.8533 34.4446 36.0877 33.5074 35.8533 32.8044C35.6191 31.6327 32.807 25.3063 32.1042 23.9005C31.6352 23.1974 31.1669 22.9633 30.4638 22.7288H27.8862C27.4172 22.7288 26.9489 22.9633 26.4799 22.9633L26.2455 23.1974C25.7768 23.4319 25.3082 23.9005 24.8396 24.1346C24.3709 24.6035 24.1364 25.0718 23.6678 25.5407C22.0274 27.6495 21.0902 30.227 21.0902 32.8044C21.0902 34.6787 21.5588 36.5534 22.2619 38.1937L22.4964 38.8967C24.6054 43.3485 27.4172 47.332 31.1669 50.8466L32.1042 51.7838C32.807 52.4869 33.5101 52.9555 33.9787 53.6582C38.8999 57.8762 44.5238 60.9222 50.8509 62.5624C51.554 62.7965 52.4912 62.7965 53.1944 63.031H55.5375C56.7093 63.031 58.1152 62.5624 59.0528 62.0938C59.7556 61.6252 60.2242 61.6252 60.6928 61.1566L61.1618 60.6877C61.6304 60.2191 62.0991 59.985 62.5677 59.5164C63.0363 59.0478 63.505 58.5792 63.7394 58.1103C64.2081 57.1731 64.4422 56.0015 64.6767 54.8302V53.1899C64.6767 53.1899 64.4422 52.9555 63.9736 52.7213Z" fill="white"/>
</g>
<defs>
<clipPath id="clip0">
<rect width="86" height="87" fill="white"/>
</clipPath>
</defs>
</svg>
