<svg width="66" height="66" viewBox="0 0 66 66" fill="none" xmlns="http://www.w3.org/2000/svg">
<path d="M59.1251 11.0002H51.7917V16.5002C51.7917 17.0299 51.6874 17.5544 51.4847 18.0437C51.282 18.533 50.9849 18.9777 50.6104 19.3522C50.2359 19.7267 49.7912 20.0238 49.3019 20.2265C48.8125 20.4292 48.2881 20.5335 47.7584 20.5335C47.2287 20.5335 46.7043 20.4292 46.2149 20.2265C45.7256 20.0238 45.2809 19.7267 44.9064 19.3522C44.5319 18.9777 44.2348 18.533 44.0321 18.0437C43.8294 17.5544 43.7251 17.0299 43.7251 16.5002V11.0002H22.3667V16.5002C22.3667 17.5699 21.9418 18.5958 21.1854 19.3522C20.429 20.1086 19.4031 20.5335 18.3334 20.5335C17.2637 20.5335 16.2378 20.1086 15.4814 19.3522C14.725 18.5958 14.3001 17.5699 14.3001 16.5002V11.0002H6.96673C6.53044 10.9952 6.09758 11.0778 5.69376 11.2431C5.28994 11.4083 4.92336 11.6528 4.61569 11.9622C4.30802 12.2716 4.06552 12.6395 3.90252 13.0443C3.73953 13.449 3.65935 13.8823 3.66673 14.3185V55.3485C3.65945 55.7771 3.73666 56.2029 3.89396 56.6016C4.05127 57.0003 4.28558 57.3642 4.58351 57.6723C4.88144 57.9805 5.23716 58.2269 5.63035 58.3975C6.02354 58.5682 6.4465 58.6597 6.87506 58.6669H59.1251C59.5536 58.6597 59.9766 58.5682 60.3698 58.3975C60.763 58.2269 61.1187 57.9805 61.4166 57.6723C61.7146 57.3642 61.9489 57.0003 62.1062 56.6016C62.2635 56.2029 62.3407 55.7771 62.3334 55.3485V14.3185C62.3407 13.89 62.2635 13.4642 62.1062 13.0655C61.9489 12.6667 61.7146 12.3029 61.4166 11.9948C61.1187 11.6866 60.763 11.4402 60.3698 11.2695C59.9766 11.0989 59.5536 11.0074 59.1251 11.0002ZM18.3334 47.6669H14.6667V44.0002H18.3334V47.6669ZM18.3334 38.5002H14.6667V34.8335H18.3334V38.5002ZM18.3334 29.3335H14.6667V25.6669H18.3334V29.3335ZM29.3334 47.6669H25.6667V44.0002H29.3334V47.6669ZM29.3334 38.5002H25.6667V34.8335H29.3334V38.5002ZM29.3334 29.3335H25.6667V25.6669H29.3334V29.3335ZM40.3334 47.6669H36.6667V44.0002H40.3334V47.6669ZM40.3334 38.5002H36.6667V34.8335H40.3334V38.5002ZM40.3334 29.3335H36.6667V25.6669H40.3334V29.3335ZM51.3334 47.6669H47.6667V44.0002H51.3334V47.6669ZM51.3334 38.5002H47.6667V34.8335H51.3334V38.5002ZM51.3334 29.3335H47.6667V25.6669H51.3334V29.3335Z" fill="black"/>
<path d="M18.3333 18.3333C18.8196 18.3333 19.2859 18.1401 19.6297 17.7963C19.9735 17.4525 20.1667 16.9862 20.1667 16.5V5.49996C20.1667 5.01373 19.9735 4.54741 19.6297 4.2036C19.2859 3.85978 18.8196 3.66663 18.3333 3.66663C17.8471 3.66663 17.3808 3.85978 17.037 4.2036C16.6932 4.54741 16.5 5.01373 16.5 5.49996V16.5C16.5 16.9862 16.6932 17.4525 17.037 17.7963C17.3808 18.1401 17.8471 18.3333 18.3333 18.3333Z" fill="black"/>
<path d="M47.6667 18.3333C48.1529 18.3333 48.6193 18.1401 48.9631 17.7963C49.3069 17.4525 49.5 16.9862 49.5 16.5V5.49996C49.5 5.01373 49.3069 4.54741 48.9631 4.2036C48.6193 3.85978 48.1529 3.66663 47.6667 3.66663C47.1805 3.66663 46.7142 3.85978 46.3703 4.2036C46.0265 4.54741 45.8334 5.01373 45.8334 5.49996V16.5C45.8334 16.9862 46.0265 17.4525 46.3703 17.7963C46.7142 18.1401 47.1805 18.3333 47.6667 18.3333Z" fill="black"/>
</svg>
