<svg width="72" height="72" viewBox="0 0 72 72" fill="none" xmlns="http://www.w3.org/2000/svg">
<path d="M61.4611 51.42L49.2661 40.332C48.6897 39.808 47.9321 39.5286 47.1535 39.5527C46.3749 39.5767 45.6361 39.9024 45.0931 40.461L37.9141 47.844C36.1861 47.514 32.7121 46.431 29.1361 42.864C25.5601 39.285 24.4771 35.802 24.1561 34.086L31.5331 26.904C32.0924 26.3614 32.4185 25.6224 32.4426 24.8436C32.4667 24.0648 32.1868 23.3071 31.6621 22.731L20.5771 10.539C20.0522 9.96105 19.3228 9.6105 18.5436 9.56176C17.7644 9.51303 16.9969 9.76996 16.4041 10.278L9.89411 15.861C9.37545 16.3815 9.06587 17.0743 9.02411 17.808C8.97911 18.558 8.12111 36.324 21.8971 50.106C33.9151 62.121 48.9691 63 53.1151 63C53.7211 63 54.0931 62.982 54.1921 62.976C54.9257 62.9349 55.6181 62.624 56.1361 62.103L61.7161 55.59C62.2262 54.9991 62.485 54.2322 62.4373 53.4531C62.3897 52.674 62.0393 51.9443 61.4611 51.42Z" fill="black"/>
</svg>
