<svg width="82" height="82" viewBox="0 0 82 82" fill="none" xmlns="http://www.w3.org/2000/svg">
<path d="M69.1875 12.8125H12.8125C11.4537 12.814 10.1511 13.3545 9.19026 14.3153C8.22947 15.2761 7.68903 16.5787 7.6875 17.9375V64.0628C7.68754 64.7358 7.82015 65.4023 8.07774 66.024C8.33533 66.6458 8.71287 67.2108 9.1888 67.6866C9.66473 68.1625 10.2297 68.54 10.8515 68.7975C11.4734 69.055 12.1398 69.1875 12.8128 69.1875L17.1018 69.1872C17.5863 69.1871 18.0609 69.0496 18.4705 68.7906C18.8801 68.5317 19.2078 68.162 19.4157 67.7243C20.6637 65.0951 22.6318 62.8739 25.0917 61.3186C27.5516 59.7632 30.4022 58.9376 33.3125 58.9376C36.2228 58.9376 39.0734 59.7632 41.5333 61.3186C43.9932 62.8739 45.9613 65.0951 47.2093 67.7243C47.4172 68.162 47.745 68.5318 48.1546 68.7907C48.5643 69.0497 49.0389 69.1871 49.5235 69.1872L69.1875 69.1875C70.5463 69.186 71.8489 68.6455 72.8097 67.6847C73.7705 66.7239 74.311 65.4213 74.3125 64.0625V17.9375C74.311 16.5787 73.7705 15.2761 72.8097 14.3153C71.8489 13.3545 70.5463 12.814 69.1875 12.8125ZM25.625 46.125C25.625 44.6046 26.0759 43.1183 26.9206 41.8541C27.7653 40.5899 28.9659 39.6045 30.3706 39.0227C31.7753 38.4408 33.321 38.2886 34.8123 38.5852C36.3035 38.8818 37.6733 39.614 38.7484 40.6891C39.8235 41.7642 40.5557 43.134 40.8523 44.6252C41.1489 46.1165 40.9967 47.6622 40.4148 49.0669C39.833 50.4716 38.8476 51.6722 37.5834 52.5169C36.3192 53.3616 34.8329 53.8125 33.3125 53.8125C31.2744 53.8102 29.3203 52.9995 27.8791 51.5584C26.438 50.1172 25.6273 48.1632 25.625 46.125ZM69.1875 64.0625L51.0687 64.0622C48.9282 60.3831 45.7019 57.4565 41.8322 55.6838C43.7721 53.9566 45.1413 51.6807 45.7583 49.1577C46.3753 46.6347 46.2108 43.9837 45.2868 41.5563C44.3628 39.1288 42.7229 37.0395 40.5844 35.5653C38.4459 34.0912 35.9099 33.3018 33.3125 33.3018C30.7151 33.3018 28.1791 34.0912 26.0406 35.5653C23.9021 37.0395 22.2622 39.1288 21.3382 41.5563C20.4142 43.9837 20.2497 46.6347 20.8667 49.1577C21.4837 51.6807 22.8529 53.9566 24.7928 55.6838C20.9231 57.4566 17.6968 60.3834 15.5563 64.0625H12.8125V17.9375H69.1875V64.0625ZM17.9375 30.75V25.625C17.9375 24.9454 18.2075 24.2936 18.688 23.813C19.1686 23.3325 19.8204 23.0625 20.5 23.0625H61.5C62.1796 23.0625 62.8314 23.3325 63.312 23.813C63.7925 24.2936 64.0625 24.9454 64.0625 25.625V56.375C64.0625 57.0546 63.7925 57.7064 63.312 58.187C62.8314 58.6675 62.1796 58.9375 61.5 58.9375H56.375C55.6954 58.9375 55.0436 58.6675 54.563 58.187C54.0825 57.7064 53.8125 57.0546 53.8125 56.375C53.8125 55.6954 54.0825 55.0436 54.563 54.563C55.0436 54.0825 55.6954 53.8125 56.375 53.8125H58.9375V28.1875H23.0625V30.75C23.0625 31.4296 22.7925 32.0814 22.312 32.562C21.8314 33.0425 21.1796 33.3125 20.5 33.3125C19.8204 33.3125 19.1686 33.0425 18.688 32.562C18.2075 32.0814 17.9375 31.4296 17.9375 30.75Z" fill="black"/>
</svg>
