<svg width="73" height="73" viewBox="0 0 73 73" fill="none" xmlns="http://www.w3.org/2000/svg">
<path d="M64.8889 12.1666H8.1111C7.0355 12.1666 6.00395 12.5939 5.24339 13.3545C4.48282 14.115 4.05554 15.1466 4.05554 16.2222V56.7777C4.05554 57.8533 4.48282 58.8849 5.24339 59.6454C6.00395 60.406 7.0355 60.8333 8.1111 60.8333H38.5278L39.6836 59.4138L41.5694 57.1022L41.3869 56.7777H8.1111V16.2222H64.8889V33.58C66.4294 34.5772 67.7989 35.8166 68.9444 37.2502V16.2222C68.9444 15.1466 68.5172 14.115 67.7566 13.3545C66.996 12.5939 65.9645 12.1666 64.8889 12.1666Z" fill="black"/>
<path d="M14.1945 24.3333H48.6667V27.5777H14.1945V24.3333Z" fill="black"/>
<path d="M14.1945 32.4445H36.5V35.6889H14.1945V32.4445Z" fill="black"/>
<path d="M14.1945 46.6389H34.4722V49.8834H14.1945V46.6389Z" fill="black"/>
<path d="M55.6827 34.9386C53.0878 34.918 50.547 35.6807 48.3925 37.127C46.2379 38.5732 44.5698 40.6358 43.606 43.0452C42.6423 45.4546 42.4278 48.0986 42.9905 50.6318C43.5533 53.165 44.8672 55.4695 46.7604 57.2442L42.8266 62.05L44.6516 69.3703L52.0732 60.3264C54.4225 61.021 56.9226 61.021 59.2718 60.3264L66.6935 69.3703L68.5185 62.05L64.5846 57.2442C66.4779 55.4695 67.7917 53.165 68.3545 50.6318C68.9173 48.0986 68.7028 45.4546 67.7391 43.0452C66.7753 40.6358 65.1071 38.5732 62.9526 37.127C60.798 35.6807 58.2573 34.918 55.6624 34.9386H55.6827ZM55.6827 56.5953C53.9595 56.5713 52.2819 56.0384 50.8607 55.0636C49.4396 54.0888 48.3384 52.7156 47.6955 51.1167C47.0526 49.5177 46.8968 47.7644 47.2476 46.0772C47.5985 44.3899 48.4403 42.8441 49.6673 41.6339C50.8943 40.4238 52.4516 39.6034 54.1436 39.276C55.8355 38.9485 57.5865 39.1285 59.1764 39.7934C60.7663 40.4583 62.1241 41.5785 63.0792 43.0129C64.0342 44.4474 64.5439 46.1322 64.5441 47.8556C64.5226 50.188 63.5783 52.4169 61.9176 54.0548C60.2569 55.6927 58.0151 56.6061 55.6827 56.5953Z" fill="black"/>
</svg>
