<svg width="39" height="27" viewBox="0 0 39 27" fill="none" xmlns="http://www.w3.org/2000/svg">
<path d="M36.46 10.85H2.53995C1.07715 10.85 0.949951 12.0346 0.949951 13.5C0.949951 14.9655 1.07715 16.15 2.53995 16.15H36.46C37.9228 16.15 38.05 14.9655 38.05 13.5C38.05 12.0346 37.9228 10.85 36.46 10.85ZM36.46 21.45H2.53995C1.07715 21.45 0.949951 22.6346 0.949951 24.1C0.949951 25.5655 1.07715 26.75 2.53995 26.75H36.46C37.9228 26.75 38.05 25.5655 38.05 24.1C38.05 22.6346 37.9228 21.45 36.46 21.45ZM2.53995 5.55H36.46C37.9228 5.55 38.05 4.36545 38.05 2.9C38.05 1.43455 37.9228 0.25 36.46 0.25H2.53995C1.07715 0.25 0.949951 1.43455 0.949951 2.9C0.949951 4.36545 1.07715 5.55 2.53995 5.55Z" fill="black"/>
</svg>
