<svg width="70" height="70" viewBox="0 0 70 70" fill="none" xmlns="http://www.w3.org/2000/svg">
<path d="M35 5.83337C47.25 5.83337 58.3334 15.225 58.3334 29.75C58.3334 39.025 51.1875 49.9334 36.925 62.5042C35.8167 63.4667 34.1542 63.4667 33.0459 62.5042C18.8125 49.9334 11.6667 39.025 11.6667 29.75C11.6667 15.225 22.75 5.83337 35 5.83337ZM35 35C38.2084 35 40.8334 32.375 40.8334 29.1667C40.8334 25.9584 38.2084 23.3334 35 23.3334C31.7917 23.3334 29.1667 25.9584 29.1667 29.1667C29.1667 32.375 31.7917 35 35 35Z" fill="black"/>
</svg>
