<svg width="73" height="58" viewBox="0 0 73 58" fill="none" xmlns="http://www.w3.org/2000/svg">
<g clip-path="url(#clip0)">
<path d="M70.4995 17.3547L38.9008 7.64652C37.1789 7.1175 35.3211 7.1175 33.6004 7.64652L2.00059 17.3547C-0.66605 18.1738 -0.66605 21.7002 2.00059 22.5192L7.50946 24.2116C6.30075 25.7058 5.55762 27.5285 5.48399 29.5245C4.39309 30.1498 3.62504 31.2781 3.62504 32.625C3.62504 33.8462 4.26848 34.8737 5.19512 35.5307L2.30305 48.5445C2.05157 49.6761 2.9125 50.75 4.07137 50.75H10.4276C11.5876 50.75 12.4485 49.6761 12.197 48.5445L9.30497 35.5307C10.2316 34.8737 10.875 33.8462 10.875 32.625C10.875 31.3144 10.1421 30.2178 9.10106 29.5812C9.18715 27.8797 10.0572 26.3753 11.4448 25.4215L33.5993 32.2286C34.6256 32.5435 36.5944 32.9366 38.8997 32.2286L70.4995 22.5204C73.1673 21.7002 73.1673 18.1749 70.4995 17.3547ZM39.9645 35.6938C36.7326 36.6862 33.9788 36.1379 32.5344 35.6938L16.1064 30.6472L14.5 43.5C14.5 47.5045 24.2377 50.75 36.25 50.75C48.2624 50.75 58 47.5045 58 43.5L56.3937 30.646L39.9645 35.6938Z" fill="black"/>
</g>
<defs>
<clipPath id="clip0">
<rect width="72.5" height="58" fill="white"/>
</clipPath>
</defs>
</svg>
